<?xml version="1.0" encoding="UTF-8"?>
<svg width="38px" height="34px" viewBox="0 0 38 34" version="1.1" xmlns="http://www.w3.org/2000/svg" xmlns:xlink="http://www.w3.org/1999/xlink">
    <!-- Generator: Sketch 48.1 (47250) - http://www.bohemiancoding.com/sketch -->
    <title>Artboard</title>
    <desc>Created with Sketch.</desc>
    <defs></defs>
    <g id="Page-1" stroke="none" stroke-width="1" fill="none" fill-rule="evenodd">
        <g id="Artboard" fill="#878D99" fill-rule="nonzero">
            <g id="目录">
                <path d="M0.569714286,1.67365714 L1.46728571,1.67365714 C1.78196429,1.67365714 2.037,1.37428571 2.037,0.822157143 C2.037,0.269712857 1.78228571,0 1.46728571,0 L0.569714286,0 C0.255017857,0 0,0.269731429 0,0.822175714 C0,1.37430429 0.254714286,1.67365714 0.569714286,1.67365714 Z M4.676375,1.67365714 L15.2711964,1.67365714 C15.6741071,1.67365714 16,1.37428571 16,0.822157143 C16,0.269712857 15.6737679,0 15.2711964,0 L4.676375,0 C4.27378571,0 3.94757143,0.269712857 3.94757143,0.822157143 C3.94755357,1.37430429 4.27346429,1.67365714 4.676375,1.67365714 Z M1.50255357,5.96168857 L0.556232143,5.96168857 C0.260803571,5.96168857 0.0214821429,6.29170286 0.0214821429,6.77987143 C0.0214821429,7.26906143 0.260785714,7.64866143 0.556232143,7.64866143 L1.50255357,7.64866143 C1.79798214,7.64866143 2.11682143,7.26870857 2.11682143,6.77987143 C2.11683929,6.292 1.79798214,5.96168857 1.50255357,5.96168857 Z M15.2711964,5.96168857 L4.676375,5.96168857 C4.27378571,5.96168857 3.94757143,6.29170286 3.94757143,6.77987143 C3.94757143,7.26906143 4.27380357,7.64866143 4.676375,7.64866143 L15.2711964,7.64866143 C15.6741071,7.64866143 16,7.26870857 16,6.77987143 C16,6.292 15.6740893,5.96168857 15.2711964,5.96168857 Z M1.52017857,11.2817157 L0.608821429,11.2817157 C0.323,11.2817157 0.0917142857,11.6133643 0.0917142857,12.1012171 C0.0917142857,12.5890514 0.323,13 0.608821429,13 L1.52016071,13 C1.806,13 2.11651786,12.5890886 2.11651786,12.1012171 C2.11651786,11.6133643 1.806,11.2817157 1.52017857,11.2817157 Z M15.2711964,11.2817157 L4.676375,11.2817157 C4.27378571,11.2817157 3.94757143,11.6133643 3.94757143,12.1012171 C3.94757143,12.5890514 4.27380357,12.9766557 4.676375,12.9766557 L15.2711964,12.9766557 C15.6741071,12.9766557 16,12.58907 16,12.1012171 C16,11.6133643 15.6740893,11.2817157 15.2711964,11.2817157 Z" id="Shape"></path>
            </g>
        </g>
    </g>
</svg>